<svg width="65" height="65" viewBox="0 0 65 65" fill="none" xmlns="http://www.w3.org/2000/svg">
<g clip-path="url(#clip0_1817_129)">
<rect width="65" height="65" rx="10" fill="white"/>
<path d="M29.9403 54H14.7294V11.0909H30.0661C34.3821 11.0909 38.0975 11.9499 41.2124 13.668C44.3272 15.372 46.7227 17.8234 48.3988 21.022C50.0889 24.2206 50.934 28.0478 50.934 32.5036C50.934 36.9732 50.0889 40.8144 48.3988 44.027C46.7227 47.2396 44.3132 49.7049 41.1705 51.4229C38.0417 53.141 34.2983 54 29.9403 54ZM23.8015 46.2269H29.5632C32.245 46.2269 34.5008 45.752 36.3306 44.8022C38.1744 43.8384 39.5572 42.3509 40.479 40.3395C41.4149 38.3142 41.8828 35.7022 41.8828 32.5036C41.8828 29.3329 41.4149 26.7418 40.479 24.7305C39.5572 22.7191 38.1813 21.2385 36.3516 20.2887C34.5218 19.3389 32.266 18.864 29.5842 18.864H23.8015V46.2269Z" fill="#003D83"/>
</g>
<defs>
<clipPath id="clip0_1817_129">
<rect width="65" height="65" fill="white"/>
</clipPath>
</defs>
</svg>
