<svg width="65" height="65" viewBox="0 0 65 65" fill="none" xmlns="http://www.w3.org/2000/svg">
<path d="M33.579 8C33.579 16.6676 37.6674 16.3405 39.4664 16.3405C41.2653 16.3405 39.7935 16.3405 45.5173 16.3405C51.2412 16.3405 50.9141 25.0081 45.5173 25.0081C40.1205 25.0081 28.5093 25.0081 21.9677 25.0081C15.4261 25.0081 15.2626 33.8392 21.9677 33.8392C28.6728 33.8392 40.1204 33.8392 45.5173 33.8392C50.9142 33.8392 50.4234 41.8526 45.5173 41.8526C40.6113 41.8526 27.6914 41.8526 21.9677 41.8526C16.244 41.8526 16.8978 50.3566 21.9677 50.3566C27.0375 50.3566 27.6917 50.3566 30.9625 50.3566C34.2333 50.3566 33.579 54.9357 33.579 58.5336" stroke="#003D83" stroke-width="4"/>
</svg>
